<svg version="1.1" baseProfile="full" xmlns="http://www.w3.org/2000/svg" xmlns:xlink="http://www.w3.org/1999/xlink" xmlns:ev="http://www.w3.org/2001/xml-events" xml:space="preserve" x="0px" y="0px" width="20px" height="24px"  viewBox="0 0 20 24" preserveAspectRatio="none" shape-rendering="geometricPrecision"><path fill="#d4cbc0" d="M17.070,17.204 L10.560,23.765 C10.411,23.915 10.210,24.000 9.999,24.000 C9.788,24.000 9.587,23.915 9.438,23.765 L2.928,17.204 C1.040,15.299 -0.000,12.770 -0.001,10.078 C-0.000,7.385 1.040,4.854 2.928,2.951 C4.818,1.048 7.329,-0.001 9.999,-0.001 C12.670,-0.001 15.180,1.048 17.070,2.951 C18.958,4.854 19.998,7.385 19.999,10.078 C19.998,12.770 18.958,15.299 17.070,17.204 ZM15.948,4.081 C14.358,2.480 12.245,1.600 9.999,1.600 C7.753,1.600 5.640,2.480 4.050,4.081 C2.462,5.684 1.587,7.811 1.587,10.078 C1.587,12.341 2.462,14.471 4.050,16.072 L9.999,22.068 L15.948,16.072 C17.536,14.471 18.411,12.341 18.411,10.078 C18.411,7.811 17.536,5.684 15.948,4.081 ZM9.999,15.537 C8.553,15.537 7.192,14.970 6.168,13.938 C5.146,12.905 4.581,11.534 4.581,10.078 C4.581,8.619 5.146,7.247 6.168,6.216 C6.401,5.982 6.778,5.982 7.011,6.216 C7.243,6.451 7.243,6.830 7.011,7.065 C6.212,7.869 5.772,8.940 5.772,10.078 C5.772,11.213 6.212,12.284 7.011,13.090 C7.809,13.894 8.870,14.337 9.999,14.337 C11.127,14.337 12.189,13.894 12.988,13.090 C13.787,12.284 14.226,11.213 14.226,10.078 C14.226,8.940 13.787,7.869 12.988,7.065 C12.755,6.830 12.755,6.451 12.988,6.216 C13.220,5.982 13.598,5.982 13.829,6.216 C14.853,7.247 15.417,8.619 15.417,10.078 C15.417,11.534 14.853,12.905 13.829,13.938 C12.806,14.970 11.446,15.537 9.999,15.537 Z"/></svg>