<?xml version="1.0" standalone="no"?>
<!DOCTYPE svg PUBLIC "-//W3C//DTD SVG 20010904//EN"
 "http://www.w3.org/TR/2001/REC-SVG-20010904/DTD/svg10.dtd">
<svg version="1.0" xmlns="http://www.w3.org/2000/svg"
 width="80px" height="40px" viewBox="0 0 652.000000 556.000000"
 preserveAspectRatio="xMidYMid meet">
<metadata>
Created by potrace 1.16, written by Peter Selinger 2001-2019
</metadata>
<g transform="translate(0.000000,556.000000) scale(0.100000,-0.100000)"
fill="#000000" stroke="none">
<path d="M3213 5506 c-107 -121 -121 -252 -35 -327 31 -27 41 -31 79 -26 74 8
123 69 123 155 0 56 -40 146 -93 207 l-33 38 -41 -47z"/>
<path d="M2812 5087 c3 -77 9 -103 34 -157 55 -117 136 -186 230 -196 151 -16
207 169 95 312 -58 74 -158 117 -295 128 l-68 5 4 -92z"/>
<path d="M3575 5169 c-171 -22 -294 -140 -298 -286 -2 -63 17 -108 58 -133 41
-25 80 -25 150 1 127 47 215 198 215 369 0 47 -11 62 -43 59 -7 -1 -43 -5 -82
-10z"/>
<path d="M3050 4643 c-410 -9 -814 -53 -927 -99 -48 -20 -99 -58 -115 -87 -10
-17 -14 -149 -18 -541 l-5 -519 -25 -8 c-14 -4 -68 -17 -120 -29 -231 -53
-324 -148 -240 -243 55 -63 195 -110 433 -146 740 -111 2131 -88 2651 43 225
58 303 147 213 244 -43 47 -190 101 -339 127 l-38 6 0 510 c0 562 3 538 -64
596 -63 56 -148 78 -401 107 -244 28 -711 46 -1005 39z m-89 -397 c77 -32 110
-98 118 -231 7 -112 17 -135 77 -181 71 -55 185 -32 240 48 26 37 29 51 34
148 5 94 9 112 32 147 74 113 253 109 333 -5 l30 -44 5 -376 c4 -333 7 -380
22 -401 43 -61 117 -77 186 -42 68 35 66 25 72 451 4 343 7 389 23 417 32 60
109 81 147 41 20 -21 20 -32 20 -519 l0 -498 -32 -6 c-98 -17 -383 -37 -686
-47 -389 -13 -888 -1 -1194 28 l-178 17 0 502 c0 498 0 501 21 524 17 19 29
22 56 18 44 -8 62 -22 84 -72 16 -34 19 -68 19 -245 0 -225 6 -251 64 -295 38
-27 125 -27 163 1 66 50 68 55 73 293 5 215 5 218 32 258 48 73 156 104 239
69z"/>
<path d="M695 2394 c-316 -71 -555 -328 -620 -670 -21 -109 -22 -837 -1 -934
22 -101 73 -223 129 -308 119 -180 277 -288 494 -339 109 -25 299 -23 406 6
184 49 354 176 423 317 34 69 36 78 32 146 -6 86 -30 140 -84 188 -56 49 -98
63 -174 58 -77 -6 -107 -20 -186 -87 -75 -64 -139 -85 -242 -79 -51 3 -91 12
-118 26 -51 26 -110 91 -137 151 -20 44 -21 61 -18 391 1 190 6 361 11 380 55
210 333 277 502 122 64 -58 123 -85 188 -85 113 0 211 70 246 176 61 185 -135
434 -414 524 -101 33 -327 42 -437 17z"/>
<path d="M2383 2395 c-88 -25 -159 -80 -198 -154 -15 -31 -63 -199 -125 -441
-23 -91 -50 -194 -60 -230 -10 -36 -39 -144 -64 -240 -25 -96 -54 -206 -65
-245 -71 -260 -144 -538 -162 -611 -18 -76 -19 -93 -8 -138 51 -214 302 -277
446 -112 31 34 53 85 73 164 l11 42 259 0 c249 0 260 -1 260 -19 0 -45 42
-149 76 -189 94 -110 252 -121 363 -26 105 90 110 167 32 454 -73 271 -177
664 -356 1344 -25 99 -56 200 -68 225 -31 66 -112 144 -172 165 -70 24 -178
29 -242 11z m167 -1080 c32 -137 55 -253 53 -257 -2 -5 -56 -8 -119 -8 -84 0
-114 3 -114 13 0 28 115 528 119 515 2 -7 30 -125 61 -263z"/>
<path d="M3667 2399 c-86 -20 -151 -80 -186 -173 -21 -56 -21 -64 -21 -955 0
-993 -2 -956 65 -1043 94 -124 282 -132 395 -18 74 73 80 103 80 375 l0 232
39 42 c29 31 41 38 48 29 6 -7 70 -116 143 -243 220 -382 237 -410 278 -447
57 -51 118 -72 195 -66 133 11 231 104 244 232 7 69 -7 115 -68 221 -29 50
-137 240 -241 424 -163 290 -186 337 -175 353 6 9 104 149 217 309 113 160
220 318 238 351 50 92 43 181 -22 275 -69 100 -212 137 -332 84 -75 -33 -62
-16 -362 -456 -42 -60 -100 -144 -130 -185 -47 -64 -56 -71 -63 -55 -4 11 -8
131 -8 266 l-1 246 -31 62 c-44 88 -111 134 -209 143 -30 3 -72 2 -93 -3z"/>
<path d="M5304 2379 c-63 -24 -113 -71 -145 -135 l-24 -49 0 -930 0 -930 24
-48 c28 -57 69 -100 125 -130 41 -22 45 -22 501 -22 l460 0 57 28 c84 41 141
115 157 204 26 137 -48 278 -173 334 -46 20 -64 22 -255 20 -113 0 -237 2
-276 5 l-70 6 0 119 0 119 166 0 c188 0 243 11 311 63 29 22 55 55 78 101 29
58 34 77 34 134 -2 116 -72 228 -174 276 -39 18 -68 21 -231 24 l-186 4 -1
113 -1 114 277 3 c266 3 279 4 329 27 102 45 176 157 176 262 0 141 -77 254
-202 297 -24 9 -162 12 -470 11 -409 0 -439 -1 -487 -20z"/>
</g>
</svg>
