<?xml version="1.0" standalone="no"?>
<!DOCTYPE svg PUBLIC "-//W3C//DTD SVG 20010904//EN"
 "http://www.w3.org/TR/2001/REC-SVG-20010904/DTD/svg10.dtd">
<svg version="1.0" xmlns="http://www.w3.org/2000/svg"
 width="80px" height="40px" viewBox="0 0 775.000000 481.000000"
 preserveAspectRatio="xMidYMid meet">
<metadata>
Created by potrace 1.16, written by Peter Selinger 2001-2019
</metadata>
<g transform="translate(0.000000,481.000000) scale(0.100000,-0.100000)"
fill="#000000" stroke="none">
<path d="M3832 4737 c-18 -19 -22 -35 -22 -94 0 -38 -3 -104 -6 -146 l-7 -75
-39 -18 c-42 -19 -106 -83 -135 -135 -14 -26 -18 -56 -18 -124 0 -80 3 -95 27
-136 15 -25 45 -62 67 -82 l41 -37 -273 0 -273 0 -52 -26 c-28 -14 -63 -39
-77 -55 -52 -63 -55 -92 -55 -603 0 -289 4 -485 10 -508 6 -20 26 -50 46 -67
41 -37 49 2 -66 -326 -164 -466 -243 -691 -351 -1000 -61 -176 -137 -394 -169
-485 -213 -608 -211 -600 -168 -655 39 -50 71 -56 288 -54 108 1 202 4 208 8
6 4 33 65 60 136 l49 130 302 3 301 2 0 -87 c0 -97 15 -136 67 -170 24 -16 51
-18 213 -18 168 0 188 2 220 20 67 40 69 50 71 350 0 149 3 285 6 303 4 21 26
54 67 98 l61 66 45 -53 c159 -190 673 -770 690 -779 15 -8 92 -10 243 -8 190
3 227 6 254 21 39 21 62 53 73 104 16 67 -12 109 -240 368 -181 205 -720 835
-720 842 0 8 54 65 465 493 503 524 495 514 495 556 0 47 -24 91 -63 114 -30
18 -52 20 -298 20 l-266 0 -100 -103 c-159 -162 -584 -619 -670 -720 -18 -20
-34 -37 -37 -37 -2 0 -5 170 -5 377 -2 420 -1 414 -71 460 -33 23 -36 23 -400
23 l-367 0 -6 63 c-3 34 -3 243 0 465 l6 404 23 15 c28 18 57 10 84 -24 17
-22 20 -40 20 -125 0 -76 4 -107 17 -129 22 -38 75 -63 117 -55 78 15 106 66
106 196 0 88 1 93 29 121 24 24 38 29 76 29 38 0 52 -5 76 -29 l29 -29 0 -162
c0 -176 8 -213 53 -243 33 -21 89 -22 127 -2 52 27 60 58 60 223 0 82 5 163
11 180 22 65 111 84 168 36 30 -25 31 -28 31 -112 0 -111 18 -151 76 -171 37
-13 44 -12 80 5 21 10 49 34 61 52 l22 34 3 -347 3 -347 33 -29 c57 -51 142
-35 180 35 14 27 17 86 20 491 3 309 0 480 -7 520 -14 73 -51 128 -110 163
l-46 27 -288 5 -289 5 45 32 c33 22 54 49 77 97 30 61 32 72 28 140 -4 56 -11
85 -31 119 -30 50 -84 101 -133 125 l-34 16 0 143 c0 139 -1 145 -25 168 -32
33 -83 34 -113 2z m139 -506 c34 -33 39 -45 39 -83 0 -93 -99 -156 -180 -115
-35 18 -70 74 -70 114 0 75 50 122 129 123 37 0 49 -5 82 -39z m-451 -2757 l0
-524 -210 0 -209 0 14 38 c7 20 57 154 110 297 53 143 127 343 164 445 84 228
108 283 121 275 7 -4 10 -184 10 -531z"/>
<path d="M1217 3706 c-70 -19 -125 -63 -161 -126 -26 -47 -31 -65 -31 -125 0
-58 5 -78 27 -116 52 -88 126 -131 223 -131 74 -1 145 30 181 78 32 41 25 69
-21 91 -33 16 -35 15 -70 -11 -95 -73 -205 -23 -205 94 0 115 105 167 198 99
l42 -31 37 19 c52 25 54 52 8 97 -62 62 -145 85 -228 62z"/>
<path d="M6509 3713 c-140 -5 -134 6 -134 -255 0 -266 -13 -248 191 -248 131
0 146 2 164 20 24 24 25 48 4 78 -14 20 -23 22 -125 22 l-109 0 0 40 0 40 93
0 c85 0 96 2 115 23 27 28 28 49 4 70 -15 13 -39 17 -115 17 l-97 0 0 35 c0
40 -7 38 138 39 71 1 86 4 98 20 19 26 18 49 -3 75 -21 25 -68 30 -224 24z"/>
<path d="M1210 2654 c-14 -2 -56 -9 -95 -15 -245 -39 -498 -173 -681 -361
-187 -192 -300 -404 -351 -655 -27 -134 -24 -367 5 -501 40 -179 117 -346 231
-500 326 -439 907 -619 1436 -445 175 57 378 173 404 230 7 15 44 109 81 208
37 99 73 192 78 207 10 25 6 31 -94 120 -58 51 -117 99 -130 106 -45 24 -75 7
-177 -102 -178 -192 -335 -266 -562 -266 -133 0 -221 20 -334 76 -165 81 -300
240 -357 419 -104 327 53 696 361 848 127 63 278 88 416 67 174 -25 301 -93
460 -247 141 -135 147 -135 294 -3 142 127 194 182 200 210 12 53 -27 116
-144 231 -186 185 -394 300 -641 354 -72 15 -345 29 -400 19z"/>
<path d="M5774 2611 c-25 -11 -50 -34 -65 -57 l-24 -39 0 -1145 0 -1145 22
-35 c12 -19 37 -44 55 -55 32 -20 51 -20 918 -20 875 0 885 0 920 21 19 11 45
35 57 54 22 31 23 43 23 198 0 189 -12 233 -75 272 -33 21 -42 21 -688 20
l-654 0 -6 52 c-9 68 -9 181 0 285 l6 83 553 2 c540 3 553 3 580 24 65 48 69
61 72 236 4 187 -6 230 -66 276 l-35 27 -554 3 -553 2 -2 63 c-1 34 -2 124 -2
199 l-1 137 655 3 c727 3 691 0 742 70 22 32 23 41 23 210 0 194 -3 203 -69
252 -27 21 -36 21 -909 23 -843 3 -884 2 -923 -16z"/>
</g>
</svg>
